<?xml version="1.0" encoding="utf-8"?>
<!-- Generator: Adobe Illustrator 17.1.0, SVG Export Plug-In . SVG Version: 6.00 Build 0)  -->
<!DOCTYPE svg PUBLIC "-//W3C//DTD SVG 1.1//EN" "http://www.w3.org/Graphics/SVG/1.1/DTD/svg11.dtd">
<svg version="1.1" id="レイヤー_1" xmlns="http://www.w3.org/2000/svg" xmlns:xlink="http://www.w3.org/1999/xlink" x="0px"
	 y="0px" viewBox="0 0 217 79" enable-background="new 0 0 217 79" xml:space="preserve">
<g>
	<g>
		<circle fill="#FFFFFF" cx="42.8" cy="39.7" r="33.1"/>
		<g>
			<path fill="#666666" d="M22.5,43.8c-1-1-1.6-2.7-1.6-4.9c0-2.2,0.5-3.9,1.6-4.9c0.8-0.8,2-1.3,3.3-1.3s2.5,0.4,3.3,1.3
				c1,1.1,1.6,2.7,1.6,4.9c0,2.2-0.5,3.9-1.6,4.9c-0.8,0.8-2,1.3-3.3,1.3C24.5,45.1,23.3,44.7,22.5,43.8z M23.6,38.9
				c0,2.6,0.7,4,2.2,4s2.2-1.3,2.2-4c0-2.6-0.7-4-2.2-4S23.6,36.3,23.6,38.9z"/>
			<path fill="#666666" d="M57.7,43.8c-1-1-1.6-2.7-1.6-4.9c0-2.2,0.5-3.9,1.6-4.9c0.8-0.8,2-1.3,3.3-1.3c1.3,0,2.5,0.4,3.3,1.3
				c1,1.1,1.6,2.7,1.6,4.9c0,2.2-0.5,3.9-1.6,4.9c-0.8,0.8-2,1.3-3.3,1.3C59.6,45.1,58.5,44.7,57.7,43.8z M58.8,38.9
				c0,2.6,0.7,4,2.2,4s2.2-1.3,2.2-4c0-2.6-0.7-4-2.2-4S58.8,36.3,58.8,38.9z"/>
			<circle fill="#E79012" cx="43.6" cy="43" r="10.5"/>
			<path opacity="0.5" fill="#666666" d="M51.1,44.7H36.2c-0.9,0-1.7-0.8-1.7-1.7s0.8-1.7,1.7-1.7h14.9c0.9,0,1.7,0.8,1.7,1.7
				S52,44.7,51.1,44.7z"/>
		</g>
	</g>
	<g>
		<path fill="#FFFFFF" d="M116.8,57.1c0,0-7.1,0.2-9.2,0c-3.2-0.3-5.7-1-7.5-2.9c-1.8-1.9-2.7-4.4-2.7-7.5h29.2v-5.2
			c0-6.6-1.8-11.9-5.3-16c-3.7-4.2-8.7-6.4-15.1-6.4c-6.2,0-11.1,2.1-14.7,6.2c-3.8,4.3-5.7,10.2-5.7,17.7c0,16,7.2,24,21.6,24
			c1.8,0,9.3,0,9.3,0L116.8,57.1z M98.4,33.7c1.4-3.2,4-4.8,7.8-4.8c3.8,0,6.4,1.6,7.8,4.8c0.7,1.4,1,3.1,1.1,5H97.3
			C97.4,36.8,97.7,35.1,98.4,33.7z"/>
		<path fill="#FFFFFF" d="M189.7,19.2c-0.7,0-8.2,0-8.9,0v9.9c0.5,0,7.8-0.1,8.3-0.1c5.8,0,8.7,2.5,8.7,7.4v2.3h-11
			c-5.2,0-9.1,1.3-11.8,3.8c-2.7,2.5-4.1,5.8-4.1,9.7c0,4.4,1.3,7.9,3.9,10.6c2.6,2.7,6.6,4,11.8,4c4.7,0,8.5-1.5,11.5-4.5v4h11.4
			V35.7C209.7,24.7,203,19.2,189.7,19.2z M197.9,49.2c0,2.4-0.4,4.1-1.1,5.2c-1.3,2-4,3-7.9,3c-4.5,0-6.7-1.8-6.7-5.4
			c0-3.5,2.2-5.3,6.5-5.3h9.2V49.2z"/>
		<path fill="#FFFFFF" d="M153.3,38l-7.4-0.7c-3.2-0.3-4.8-1.6-4.8-4c0-3,2.2-4.5,6.6-4.5c2,0,18.9,0,18.9,0v-9.6c0,0-16.9,0-18.7,0
			c-5,0-9.2,1.3-12.6,3.8c-3.6,2.8-5.5,6.5-5.5,11.1c0,7.8,4.5,12.2,13.6,13.1l7.4,0.7c3.3,0.3,4.9,1.7,4.9,4.3
			c0,3.2-2.8,4.8-8.3,4.8c-1.4,0-16.8,0-16.8,0v10c0,0,15.3,0,16.6,0c5.8,0,10.5-1.3,14.1-3.8c3.8-2.7,5.7-6.5,5.7-11.5
			C167.2,43.5,162.6,38.9,153.3,38z"/>
	</g>
</g>
</svg>
