<?xml version="1.0" encoding="utf-8"?>
<!-- Generator: Adobe Illustrator 17.1.0, SVG Export Plug-In . SVG Version: 6.00 Build 0)  -->
<!DOCTYPE svg PUBLIC "-//W3C//DTD SVG 1.1//EN" "http://www.w3.org/Graphics/SVG/1.1/DTD/svg11.dtd">
<svg version="1.1" id="レイヤー_1" xmlns="http://www.w3.org/2000/svg" xmlns:xlink="http://www.w3.org/1999/xlink" x="0px"
	 y="0px" viewBox="0 0 457 300" enable-background="new 0 0 457 300" xml:space="preserve">
<g>
	<path fill="#FFFFFF" d="M335.4,103.7c-9.1-53.4-55.6-94-111.6-94c-55.9,0-102.3,40.5-111.6,93.7L7.1,100.2c0,0,12.3,47.2,29.8,74.2
		c20.6,31.8,62.4,48.7,87.1,56.2c19.1,35.5,56.6,59.7,99.8,59.7c42,0,78.6-22.9,98.2-56.8c21.2-5.5,73.4-22.4,97.2-59.1
		c17.5-27,29.8-74.2,29.8-74.2L335.4,103.7z"/>
	<g>
		<path fill="#666666" d="M154.5,137c-3.4-3.5-5.3-9.4-5.3-16.8c0-7.4,1.8-13.3,5.3-16.8c2.8-2.9,6.7-4.4,11.2-4.4
			c4.5,0,8.4,1.5,11.2,4.4c3.5,3.6,5.3,9.3,5.3,16.8c0,7.4-1.8,13.3-5.3,16.8c-2.8,2.9-6.8,4.4-11.2,4.4
			C161.1,141.4,157.3,139.9,154.5,137z M158.2,120.2c0,8.9,2.5,13.5,7.5,13.5s7.5-4.6,7.5-13.5c0-8.9-2.5-13.5-7.5-13.5
			S158.2,111.3,158.2,120.2z"/>
		<path fill="#666666" d="M274.6,137c-3.4-3.5-5.3-9.4-5.3-16.8c0-7.4,1.8-13.3,5.3-16.8c2.8-2.9,6.7-4.4,11.2-4.4
			c4.5,0,8.4,1.5,11.2,4.4c3.5,3.6,5.3,9.3,5.3,16.8c0,7.4-1.8,13.3-5.3,16.8c-2.8,2.9-6.8,4.4-11.2,4.4
			C281.3,141.4,277.4,139.9,274.6,137z M278.3,120.2c0,8.9,2.5,13.5,7.5,13.5c5,0,7.5-4.6,7.5-13.5c0-8.9-2.5-13.5-7.5-13.5
			C280.8,106.7,278.3,111.3,278.3,120.2z"/>
		<circle fill="#D38722" cx="226.6" cy="134.3" r="35.9"/>
		<path opacity="0.5" fill="#666666" d="M252.1,140h-51c-3.2,0-5.8-2.6-5.8-5.8s2.6-5.8,5.8-5.8h51c3.2,0,5.8,2.6,5.8,5.8
			S255.3,140,252.1,140z"/>
	</g>
</g>
</svg>
